<svg width="434" height="305" viewBox="0 0 434 305" fill="none" xmlns="http://www.w3.org/2000/svg">
<path d="M192 74H308.5L253 129.5H213.5L40 303V226L75 191L2 209L40 143L89.5 129.5L40 80V2L153 115L192 74Z" fill="white"/>
<path d="M242.5 231L126 231L181.5 175.5H221L394.5 2V79L359.5 114L432.5 96L394.5 162L345 175.5L394.5 225V303L281.5 190L242.5 231Z" fill="white"/>
<path d="M192 74H308.5L253 129.5H213.5L40 303V226L75 191L2 209L40 143L89.5 129.5L40 80V2L153 115L192 74Z" stroke="black"/>
<path d="M242.5 231L126 231L181.5 175.5H221L394.5 2V79L359.5 114L432.5 96L394.5 162L345 175.5L394.5 225V303L281.5 190L242.5 231Z" stroke="black"/>
</svg>
